<svg xmlns="http://www.w3.org/2000/svg" xmlns:xlink="http://www.w3.org/1999/xlink" width="907.668" height="331.463" viewBox="0 0 907.668 331.463">
  <defs>
    <linearGradient id="linear-gradient" x1="0.5" y1="1.433" x2="0.5" y2="0.138" gradientUnits="objectBoundingBox">
      <stop offset="0" stop-color="#30358c"/>
      <stop offset="0.236" stop-color="#303990"/>
      <stop offset="0.48" stop-color="#31459c"/>
      <stop offset="0.729" stop-color="#335ab1"/>
      <stop offset="0.979" stop-color="#3577ce"/>
      <stop offset="1" stop-color="#367ad1"/>
    </linearGradient>
    <linearGradient id="linear-gradient-2" x1="-0.033" y1="0.01" x2="0.959" y2="0.953" gradientUnits="objectBoundingBox">
      <stop offset="0" stop-color="#7ac9eb"/>
      <stop offset="0.22" stop-color="#76c4e9"/>
      <stop offset="0.448" stop-color="#6bb8e5"/>
      <stop offset="0.68" stop-color="#59a3de"/>
      <stop offset="0.913" stop-color="#4186d5"/>
      <stop offset="1" stop-color="#367ad1"/>
    </linearGradient>
    <linearGradient id="linear-gradient-3" x1="0.5" x2="0.5" y2="1" gradientUnits="objectBoundingBox">
      <stop offset="0" stop-color="#c8e9f7"/>
      <stop offset="0.222" stop-color="#c3e7f6"/>
      <stop offset="0.451" stop-color="#b7e2f4"/>
      <stop offset="0.684" stop-color="#a2d9f1"/>
      <stop offset="0.919" stop-color="#85cdec"/>
      <stop offset="1" stop-color="#7ac9eb"/>
    </linearGradient>
    <linearGradient id="linear-gradient-4" x1="-0.263" y1="0.95" x2="2.037" y2="-0.364" gradientUnits="objectBoundingBox">
      <stop offset="0" stop-color="#1e2859"/>
      <stop offset="0.148" stop-color="#1f2e61"/>
      <stop offset="0.389" stop-color="#243e7a"/>
      <stop offset="0.693" stop-color="#2c59a1"/>
      <stop offset="1" stop-color="#367ad1"/>
    </linearGradient>
    <linearGradient id="linear-gradient-5" x1="0.5" y1="0" x2="0.5" y2="1.316" xlink:href="#linear-gradient-3"/>
    <linearGradient id="linear-gradient-6" y1="0.5" x2="1" y2="0.5" gradientUnits="objectBoundingBox">
      <stop offset="0" stop-color="#cc9068"/>
      <stop offset="0.398" stop-color="#c78c64"/>
      <stop offset="0.809" stop-color="#bb815a"/>
      <stop offset="1" stop-color="#b37a54"/>
    </linearGradient>
    <linearGradient id="linear-gradient-7" x1="-0.267" y1="-0.354" x2="1.068" y2="1.132" gradientUnits="objectBoundingBox">
      <stop offset="0" stop-color="#f0c397"/>
      <stop offset="1" stop-color="#cc9068"/>
    </linearGradient>
    <linearGradient id="linear-gradient-8" x1="-0.495" y1="-0.095" x2="1.699" y2="1.217" xlink:href="#linear-gradient-7"/>
  </defs>
  <g id="Group_549" data-name="Group 549" transform="translate(-0.001 -145)">
    <path id="Path_2167" data-name="Path 2167" d="M119.462,1334.305c-40.611,0-80.5-.005-119.461-.012v9.193c38.957.048,78.85.073,119.461.073,435.314,0,788.207-2.841,788.207-6.344S554.776,1334.305,119.462,1334.305Z" transform="translate(0 -876.392)" fill="#d1cdca"/>
    <g id="Group_514" data-name="Group 514" transform="translate(0.001 145)">
      <g id="Group_509" data-name="Group 509" transform="translate(71.42 224.659)">
        <path id="Path_2168" data-name="Path 2168" d="M414.728,1104.349a37.761,37.761,0,1,1,0,75.521H395.443v-75.521Z" transform="translate(-342.041 -1088.708)" fill="#3c3c3b"/>
        <circle id="Ellipse_53" data-name="Ellipse 53" cx="37.761" cy="37.761" r="37.761" transform="translate(0 53.402) rotate(-45)" fill="#575756"/>
        <circle id="Ellipse_54" data-name="Ellipse 54" cx="24.167" cy="24.167" r="24.167" transform="translate(19.225 53.402) rotate(-45)" fill="#878787"/>
      </g>
      <path id="Path_2169" data-name="Path 2169" d="M189.556,614.385l26.349-1.851a14.2,14.2,0,0,0,13.21-14.169V496.512L217.3,362.052a20.808,20.808,0,0,0-20.728-18.987H0v271.32Z" transform="translate(-0.001 -343.065)" fill="url(#linear-gradient)"/>
      <path id="Path_2170" data-name="Path 2170" d="M218.537,1104.349a37.761,37.761,0,1,1,0,75.521H199.252v-75.521Z" transform="translate(-136.358 -864.049)" fill="#3c3c3b"/>
      <path id="Path_2171" data-name="Path 2171" d="M141.615,343.065H0V620.8H16.989l117.7-8.267a14.205,14.205,0,0,0,13.21-14.169V496.512l4.34-134.3C152.581,351.737,149.822,343.065,141.615,343.065Z" transform="translate(-0.001 -343.065)" fill="url(#linear-gradient-2)"/>
      <path id="Path_2172" data-name="Path 2172" d="M145.634,1090.561v-5.731a45.908,45.908,0,1,0-91.816,0v12.18Z" transform="translate(-36.831 -819.274)" fill="#1e2859"/>
      <path id="Path_2173" data-name="Path 2173" d="M245.162,1129.609v5.729l-45.908,3.226h0v-34.21h19.286a37.571,37.571,0,0,1,23.282,8.03c.136.331.265.666.391,1,.256.672.492,1.351.717,2.039.215.663.417,1.335.6,2.011.016.047.028.1.041.152.088.325.174.647.253.975.073.29.142.581.205.871.028.12.057.24.082.363.041.186.079.372.117.559s.076.375.114.562.069.376.1.565c.038.208.073.42.107.631.028.167.054.335.079.5.032.2.06.391.088.587s.051.372.073.559c.051.391.095.786.136,1.184.019.183.035.366.051.549.013.139.025.278.038.42.006.1.013.2.022.3.025.344.047.691.063,1.035.009.2.019.391.025.587a.487.487,0,0,1,0,.069c.013.341.022.688.025,1.032C245.158,1129.161,245.162,1129.385,245.162,1129.609Z" transform="translate(-136.357 -864.052)" fill="#3c3c3b"/>
      <circle id="Ellipse_55" data-name="Ellipse 55" cx="37.761" cy="37.761" r="37.761" transform="translate(9.492 278.061) rotate(-45)" fill="#575756"/>
      <circle id="Ellipse_56" data-name="Ellipse 56" cx="24.167" cy="24.167" r="24.167" transform="translate(28.717 278.061) rotate(-45)" fill="#9d9d9c"/>
      <path id="Path_2174" data-name="Path 2174" d="M177.076,1177.641a19.581,19.581,0,0,1-22.984,23.747,1.632,1.632,0,0,0-1.553,2.693,19.573,19.573,0,1,0,27.186-28.064A1.631,1.631,0,0,0,177.076,1177.641Z" transform="translate(-104.094 -912.819)" fill="#dadada"/>
      <g id="Group_510" data-name="Group 510" transform="translate(232.7 32.402)">
        <path id="Path_2175" data-name="Path 2175" d="M770.976,445.715,761.961,566.76q-.686,9.212-.686,18.455v76.615H797.12V445.715Z" transform="translate(-753.677 -445.715)" fill="#367ad1"/>
        <path id="Path_2176" data-name="Path 2176" d="M750.063,445.715,737.891,566.76q-.686,9.212-.686,18.455v76.615h33.561V575.975l2.284-130.26Z" transform="translate(-737.205 -445.715)" fill="url(#linear-gradient-3)"/>
      </g>
      <path id="Path_2177" data-name="Path 2177" d="M555.567,566.76v95.071h-71.3V566.76L487.7,445.714h58.529Z" transform="translate(-331.41 -413.313)" fill="url(#linear-gradient-4)"/>
      <g id="Group_511" data-name="Group 511" transform="translate(0.002 31.817)">
        <path id="Path_2178" data-name="Path 2178" d="M218.537,445.032H.007v-1.168H218.433Z" transform="translate(-0.007 -443.864)" fill="#30358c"/>
      </g>
      <g id="Group_512" data-name="Group 512" transform="translate(0.001 210.346)">
        <path id="Path_2179" data-name="Path 2179" d="M12.046,1053.583H0v-1.169H11.053a51.345,51.345,0,0,1,17.5-30.032A52.91,52.91,0,0,1,62.9,1009.451c7.732,0,16.432,2.469,24.5,6.952,7.543,4.192,13.676,9.716,16.887,15.2h43.621v1.169h-44.3l-.168-.3c-3.058-5.4-9.112-10.881-16.608-15.048-7.9-4.388-16.394-6.8-23.93-6.8-24.653,0-46.956,18.656-50.774,42.472Z" transform="translate(-0.004 -1009.451)" fill="#30358c"/>
      </g>
      <g id="Group_513" data-name="Group 513" transform="translate(100.873 32.402)">
        <path id="Path_2180" data-name="Path 2180" d="M345.716,445.715l9.014,121.045q.686,9.212.686,18.455v76.615H319.572V445.715Z" transform="translate(-319.572 -445.715)" fill="#367ad1"/>
        <path id="Path_2181" data-name="Path 2181" d="M366.63,445.715,378.8,566.76q.686,9.212.687,18.455v76.615H345.926V575.975l-2.284-130.26Z" transform="translate(-336.044 -445.715)" fill="url(#linear-gradient-5)"/>
      </g>
    </g>
    <g id="Group_518" data-name="Group 518" transform="translate(152.86 210.138)">
      <g id="Group_515" data-name="Group 515" transform="translate(0 98.979)">
        <rect id="Rectangle_626" data-name="Rectangle 626" width="151.853" height="35.518" fill="#f0c397"/>
        <rect id="Rectangle_627" data-name="Rectangle 627" width="69.368" height="35.518" transform="translate(221.221 35.518) rotate(180)" fill="url(#linear-gradient-6)"/>
      </g>
      <g id="Group_517" data-name="Group 517" transform="translate(115.684)">
        <path id="Path_2182" data-name="Path 2182" d="M1175.565,711.944c-3.7,7.175-10.379,22.279-13.2,30.054-2.207,6.078-1.669,11.635-.677,17.869,1.08,6.793,3.14,18.117,4.546,24.566.54,2.479.73,4.71,3.831,4.609,2.413-.079,3.447-3.238,3.489-5.346.089-4.5-.07-19.36.275-22.621.262-2.473,2.039-9.5,3.846-12.442,3.922-6.379,6.65-10.7,11.226-18.216,6.229-10.238,8.618-17.683,6.148-25.559-.788-2.515-3.571-4.661-5.784-5.568a7.452,7.452,0,0,0-4.989-.419C1181.2,700.179,1178.339,706.567,1175.565,711.944Z" transform="translate(-1062.952 -651.526)" fill="#7fd9eb"/>
        <path id="Path_2183" data-name="Path 2183" d="M1070.119,748.153c2.506.2,36.5,3.167,41.092,2.974,1.078-.045,2.877-.637,3.338-2.217.679-2.328-.326-13.746.815-20.279,1.151-6.587,8.6-28.159,10.033-36.206.721-4.055.812-6.624-2.317-8.265-3.072-1.611-12.286-4.281-15.577-4.943a85.5,85.5,0,0,0-20.82-1.648c-3.091.17-6.937.734-9.277,2.961a14.5,14.5,0,0,0-3.965,6.952c-1.391,5.51-2.12,25.652-2.255,30.425-.165,5.826-1.207,9.328-2.225,13.7-1.03,4.429-1.75,7.327-2.832,11.586C1065.3,746.441,1066.334,747.844,1070.119,748.153Z" transform="translate(-997.966 -637.052)" fill="#7fd9eb"/>
        <path id="Path_2184" data-name="Path 2184" d="M1138.547,579.044c.169,2.012.064,5.528.545,7.526a9.8,9.8,0,0,0,2.318,4.164c.86.652,1.247.878,2.018,1.515.905.748.935,3.221,1.083,4.61.267,2.513-.072,3.123-1.846,3.675-.622.193-1.879.394-2.057,1.064a6.33,6.33,0,0,0,1.064,3.783c1.952,2.9,4.3,6.227,10.207,6.227,3.53,0,8.4-3.845,7.251-8.013-.227-.824-1.627-2.14-1.721-2.785-.29-2-.42-4.742-.526-6.686-.118-2.183-.694-3.108.3-5.1,4.18-8.351,3.716-13.869,2.1-17.215a12.35,12.35,0,0,0-11.225-6.531c-4.743.306-9.588,3.3-10.592,7.371C1136.844,575.181,1138.334,576.522,1138.547,579.044Z" transform="translate(-1046.866 -560.258)" fill="#fec1b5"/>
        <path id="Path_2185" data-name="Path 2185" d="M1148.254,632.4a2.941,2.941,0,0,0,.641.7c.858.653,1.239.889,2.018,1.516a4.448,4.448,0,0,1,.9,2.579,5.911,5.911,0,0,0,1.658-.082c2.626-.372,5.227-3.285,6.041-4.578.883-1.4,1.851-4.8,1.472-5.347-.217-.322-1.958,2.239-2.26,2.614C1156.07,633.108,1151.4,633.455,1148.254,632.4Z" transform="translate(-1054.35 -602.623)" fill="#e8988c"/>
        <path id="Path_2186" data-name="Path 2186" d="M1318.508,1279.133c-.289,2.969.079,3.915,3.811,4.373,2.018.248,4.537-.07,6.211.106,3.171.335,9.418,2.688,14.358,2.688,3.836,0,9.646,0,8.88-2.806-.677-2.48-6.182-3.086-8.459-3.941a31.494,31.494,0,0,1-8.775-4.47,15.866,15.866,0,0,1-5.4-7c-1.822-4.288-2.123-7.785-5.447-8.167-3.625-.417-4.874,2.145-4.179,11.406C1319.7,1273.879,1318.7,1277.185,1318.508,1279.133Z" transform="translate(-1170.81 -1035.617)" fill="#1e2859"/>
        <path id="Path_2187" data-name="Path 2187" d="M853.92,1240.688c1.448,1.376,5.888,3.738,8.179,2.664s-1.349-7.827-1.206-10.593c.179-3.468,2.661-12.105,4.7-14.219,1.835-1.9,3.765-3.116,5.631-4.791,1.626-1.46,2.142-3.882,1.128-5.121-1.6-1.959-3.825-2.886-6.835-.917-.986.645-4.128,2.406-6.2,3.563-1.847,1.031-3.783,1.028-6.351,2.176-2.649,1.184-2.243,4.183-2.092,5.148a70.54,70.54,0,0,1,.733,7.851c.074,3.28-.734,5.134-.481,8.39A9.592,9.592,0,0,0,853.92,1240.688Z" transform="translate(-850.761 -999.174)" fill="#1e2859"/>
        <path id="Path_2188" data-name="Path 2188" d="M1153.26,580.06c-1.566-4.274-7.69-7.263-12.172-6.97a8.789,8.789,0,0,0-3.617,4.905,5.242,5.242,0,0,0,.177,3.062,2.416,2.416,0,0,1,.634-.707,4.4,4.4,0,0,1,2.993-.644c2.531.142,5.735,1.433,8.156,2.115C1151.385,582.371,1154.257,582.788,1153.26,580.06Z" transform="translate(-1046.865 -565.607)" fill="#e8988c"/>
        <path id="Path_2189" data-name="Path 2189" d="M1142.6,555.756a18.766,18.766,0,0,1,10.452.256,10.5,10.5,0,0,1,4.753,2.788,6.6,6.6,0,0,1,1.407,3.275c.114,1.293.306,1.3,1.168,2.111.946.893.808,2.882.779,4.688-.035,2.17-1.019,4.223-1.828,6.234-1.114,2.767-3.687,8.732-4.674,8.349-.6-.233-1.48-2.173-1.419-3.025.13-1.813.2-3.7.5-5.494a2.5,2.5,0,0,0-.4-2.391c-.222.474-.729,1.859-.729,1.859l-1.839-.854a21.5,21.5,0,0,0-.341-6.332,6.648,6.648,0,0,0-2.93-3.809c-2.817-1.6-7.608-1.162-10.553.531-1.144.658-1.315,2.828-1.157,3.7.1.556.434,2.117.012,1.825-.451-.312-1.036-2.3-1.13-3.6a8.98,8.98,0,0,1,.816-4.643A10.653,10.653,0,0,1,1142.6,555.756Z" transform="translate(-1045.035 -553.334)" fill="#1e2859"/>
        <ellipse id="Ellipse_57" data-name="Ellipse 57" cx="3.471" cy="2.209" rx="3.471" ry="2.209" transform="translate(106.788 23.482) rotate(-75.289)" fill="#fec1b5"/>
        <g id="Group_516" data-name="Group 516" transform="translate(82.652)">
          <path id="Path_2190" data-name="Path 2190" d="M1153.645,550.718c-3.617-1.2-9.887-2.026-12.868-.33-4.055,2.307-5.665,4.6-6.616,7.617-.237.751.2,1.288.681,1.086a16.111,16.111,0,0,1,9.757-.569,20.731,20.731,0,0,1,6.812,3.154,29.325,29.325,0,0,1,7.766,6.9c.827,1.02,1.54-.368,1.739-1.115C1162.624,561.014,1162.828,553.768,1153.645,550.718Z" transform="translate(-1127.311 -549.425)" fill="#3448ad"/>
          <path id="Path_2191" data-name="Path 2191" d="M1153.777,564.676c-.225-1.3-1.939-4.37-6.979-6.12-1.928-.67-5.075-2.474-7.13-3.208-.982-.351-1.2-.163-1.045-.132a5.592,5.592,0,0,1,2.183.77c1.952,1.115,2.87,2.765,4.02,3.674a25.2,25.2,0,0,0,3.94,2.631c1.391.743,3.815,1.853,4.546,2.291C1153.647,564.781,1153.815,564.9,1153.777,564.676Z" transform="translate(-1130.38 -553.334)" fill="#7ac9eb"/>
          <path id="Path_2192" data-name="Path 2192" d="M1135.843,564.315c-2.836-1.7-7.246-3.068-10.365-6.816a7.359,7.359,0,0,0-10.281-1.418c-1.263.975-3.174,3.239-2.419,5.443.679,1.981,4,3.186,5.821,3.484.89.146,1.1.021,1.484-.384a7.963,7.963,0,0,1,3.367-2.28c2.535-.86,6.386-.261,8.755.585a29.077,29.077,0,0,1,3.267,1.6C1135.939,564.8,1136.247,564.572,1135.843,564.315Z" transform="translate(-1112.606 -552.964)" fill="#1f367a"/>
        </g>
        <path id="Path_2193" data-name="Path 2193" d="M1069.832,780.495a9.463,9.463,0,0,1-1.139,2.093c-2.614-.543-3.277-1.97-2.567-4.76,1.083-4.261,1.8-7.159,2.831-11.588,1.02-4.378,2.061-7.879,2.226-13.706.095-3.327.477-14.132,1.174-22.231,1.111-2.819,3-3.381,6.313.739C1082.773,736.146,1074.775,772.288,1069.832,780.495Z" transform="translate(-997.963 -671.681)" fill="#37c0db"/>
        <path id="Path_2194" data-name="Path 2194" d="M915.826,769.715c2.207.045,3.966-.331,5.188-4.174.729-2.3,8.063-24.84,10.364-32.153a26.331,26.331,0,0,1,9.591-12.706c5.419-3.557,22.05-12.833,29.969-18.55,6-4.332,12.016-7.563,10.745-16.158-.513-3.466-4.28-5.468-7.9-5.244-3.282.2-7.261.837-9.96,2.622-7,4.63-26.395,22.505-32.944,28.24-5.632,4.933-8.777,12.406-10.407,19.763-2.058,9.29-5.8,24.5-7.724,34.023C912.213,768.042,913.926,769.676,915.826,769.715Z" transform="translate(-893.115 -639.273)" fill="#7fd9eb"/>
        <path id="Path_2195" data-name="Path 2195" d="M878.682,959.5a9.182,9.182,0,0,0,3.312-.047c2.1-.493,6.626-1.582,7.412-3.171.88-1.778,1.451-5.032,1.988-7.253a2.8,2.8,0,0,0-2.9-3.469c-2.291-.073-4.195,2.275-5.361,3.871-2.209,3.023-12.143,5.417-12.824,7.086C869.771,957.833,875.561,958.905,878.682,959.5Z" transform="translate(-864.113 -820.521)" fill="#e8988c"/>
        <path id="Path_2196" data-name="Path 2196" d="M887.262,844.354c3.626-2.82,38.256-30.317,40.625-32.815,2.8-2.956,6.082-8.578,6.431-12.752.731-8.731.926-25.185,1.757-38.3a33.348,33.348,0,0,1,3.115-11.045,8.456,8.456,0,0,1,3.507-4.231c3.119-1.826,7.529-2.091,10.41-4.3a14.707,14.707,0,0,0,5.548-7.943c1.667-6.562,3.5-18.758,4.325-24.717.739-5.337.96-14.094-1.687-21.061a23.925,23.925,0,0,0-5.459-7.778c-.707-.64-.816-.969-.223-1.114.887-.216,2.5-.443,3.352-.557a2.625,2.625,0,0,1,2.292.9,24.434,24.434,0,0,1,5.706,9.93,53.584,53.584,0,0,1,1.381,18.161c4.785.32,13.4.99,18.062,1.376,2.81-10.359,4.317-19.7,3.288-26.227-.161-1.021-.258-1.468.336-1.257.754.266,2.42.765,3.446,1.107.88.293,1.116,1.593,1.226,1.981,1.393,4.954-1.783,20.424-3.65,26.59h0c-.1,1.584-2.066,15.351-2.3,19.574-.209,3.8-.728,7.608.438,11.38a17.133,17.133,0,0,0,3.143,5.4c1.952,2.011,1.819,2.513,2.03,4.83.156,1.712.448,8.861.462,12.161,3.033,10.406,11.605,29.294,14.4,35.638,4.575,10.4,7.676,20.287,9.324,25.232,3.3,9.887,7.466,21.833,12.127,36.869.579,1.869,1.424,3.972.516,5.988a9.134,9.134,0,0,1-4.661,4.1c-3.1,1.448-7.12,2.127-8.966-.956-.835-1.4-3.074-6.928-3.805-8.82-4.119-10.659-7.106-17.572-11.38-28.424-2.466-6.262-7.651-14.35-12.208-21.524-4.182-6.584-15.2-22.6-17.4-25.85-2.571-3.787-6.88-4.155-9.214,1.081-2.208,4.955-9.031,23.709-11.362,28.555a34.629,34.629,0,0,1-10.732,12.994c-6.242,4.567-39.354,26.934-44.606,29.3-2.833,1.278-4.024.692-5.185-.052a14.038,14.038,0,0,1-3.948-4.875,15.6,15.6,0,0,1-1.894-5.029A3.628,3.628,0,0,1,887.262,844.354Z" transform="translate(-874.734 -637.216)" fill="#3448ad"/>
        <path id="Path_2197" data-name="Path 2197" d="M1133.61,996.409c2.405-4.25,6.34-3.7,8.749-.154,2.207,3.25,13.222,19.263,17.4,25.849,4.556,7.176,9.742,15.262,12.207,21.523,2.557,6.495,4.653,11.577,6.81,16.895a2.934,2.934,0,0,0,.363-1.482c0-2.484-2.349-6.778-3.414-11.245-.867-3.638-1.418-10-3.468-14.553-1.009-2.245-5.463-6.148-7.147-10.088-1.92-4.5-1.961-9.568-4.6-13.768-1.551-2.468-5.334-4.152-6.936-7.251-2.475-4.789-2.125-13.83-5.334-17.04-1.576.259-7.806,1.507-8.932,1.75a3.383,3.383,0,0,0-2.2,1.835c-1.308,2.7-1.9,4.392-3.241,6.895A2.768,2.768,0,0,0,1133.61,996.409Z" transform="translate(-1044.328 -847.574)" fill="#1f367a"/>
        <path id="Path_2198" data-name="Path 2198" d="M1278.344,1183.14c-4.309-13.9-8.2-25.167-11.367-34.6-2.728,2.737-13.144,10.817-14.571,3.163-.328-1.755-1.427-4-2.412-3.819a3.072,3.072,0,0,0-2.292,2.067,55.182,55.182,0,0,1,2.346,5.076c4.274,10.852,7.26,17.765,11.379,28.424.732,1.891,2.971,7.424,3.807,8.819,1.847,3.084,5.868,2.4,8.965.956a9.145,9.145,0,0,0,4.662-4.1C1279.767,1187.111,1278.924,1185.009,1278.344,1183.14Z" transform="translate(-1122.408 -958.971)" fill="#1f367a"/>
      </g>
    </g>
    <g id="Group_527" data-name="Group 527" transform="translate(670.443 207.353)">
      <g id="Group_519" data-name="Group 519">
        <path id="Path_2199" data-name="Path 2199" d="M2332.823,737.622c2.528.209,38.341,3.586,42.977,3.389,1.087-.046,2.9-.652,3.368-2.269.684-2.382-.328-14.063.823-20.747,1.16-6.739,8.678-28.809,10.122-37.041.727-4.149.819-6.776-2.338-8.455-3.1-1.649-12.394-4.379-15.714-5.057a85.1,85.1,0,0,0-21-1.686c-3.119.175-8.318.752-10.679,3.029a19.48,19.48,0,0,0-4.374,7.487c-2.306,6.854-1.85,24.191-2.1,30.405a66.549,66.549,0,0,1-2.245,14.021c-1.039,4.531-1.766,7.5-2.857,11.853C2327.966,735.871,2329.005,737.306,2332.823,737.622Z" transform="translate(-2263.968 -626.18)" fill="#7fd9eb"/>
        <path id="Path_2200" data-name="Path 2200" d="M2348.249,784.492c-2.851-2.7-7.83-.648-9.01-4.006-1.2-3.425,1.323-9.5,2.812-13.576,1.171-3.213,5.792-11.621.633-11.083a43.055,43.055,0,0,0-8.61,1.719c-.086,4.432-.076,8.444-.175,10.824a66.647,66.647,0,0,1-2.242,14.021c-1.04,4.531-1.768,7.5-2.859,11.853-.83,3.319.21,4.754,4.027,5.071.91.074,6.148.561,12.69,1.145a9.265,9.265,0,0,0,2.5-2.625C2351.827,791.985,2351.058,787.153,2348.249,784.492Z" transform="translate(-2263.968 -687.874)" fill="#37c0db"/>
        <path id="Path_2201" data-name="Path 2201" d="M2544.863,777.493c.966-2.249.407-4.008-2.33-6.452-1.8-1.608-19.852-16.473-25.6-21.5a28.443,28.443,0,0,1-7.722-13.064c-1.408-6.326-5.272-25.139-7.321-34.431-1.657-7.517-2.922-15-10.575-17.3-3.317-1-7.229,2.78-8.264,6.188a22.182,22.182,0,0,0-.286,10.413c1.85,8.188,11.616,32.774,14.637,40.963,2.6,7.042,7.828,12.711,14.087,16.9,8.348,5.588,20.112,13.987,28.376,18.927C2542.2,779.523,2544.269,778.875,2544.863,777.493Z" transform="translate(-2369.19 -639.131)" fill="#7fd9eb"/>
        <path id="Path_2202" data-name="Path 2202" d="M2588.23,1277.144c-.292,2.995.079,3.949,3.845,4.411,2.036.25,4.578-.071,6.266.107,3.2.337,9.5,2.711,14.484,2.711,3.87,0,9.732,0,8.958-2.83-.683-2.5-6.236-3.113-8.534-3.976a31.793,31.793,0,0,1-8.853-4.51,16.008,16.008,0,0,1-5.449-7.067c-1.838-4.326-2.142-7.854-5.5-8.239-3.658-.42-4.916,2.164-4.216,11.506C2589.431,1271.844,2588.421,1275.179,2588.23,1277.144Z" transform="translate(-2441.64 -1031.353)" fill="#1e2859"/>
        <path id="Path_2203" data-name="Path 2203" d="M2127.181,1232.8c1.46,1.388,5.94,3.771,8.251,2.687s-1.36-7.9-1.216-10.687c.18-3.5,2.684-12.212,4.745-14.345,1.852-1.917,3.8-3.144,5.681-4.833,1.64-1.472,2.161-3.916,1.138-5.166-1.618-1.976-3.859-2.911-6.9-.925-1,.651-4.164,2.427-6.257,3.595-1.864,1.04-3.816,1.037-6.407,2.2-2.672,1.195-2.263,4.22-2.111,5.194a71.232,71.232,0,0,1,.74,7.92c.074,3.309-.74,5.18-.485,8.464A9.677,9.677,0,0,0,2127.181,1232.8Z" transform="translate(-2123.994 -990.785)" fill="#1e2859"/>
        <path id="Path_2204" data-name="Path 2204" d="M2160.817,833.517c3.658-2.845,36.182-28.83,38.571-31.351,2.827-2.981,6.135-8.654,6.488-12.864.737-8.808.934-25.407,1.772-38.642a33.643,33.643,0,0,1,3.143-11.143,8.528,8.528,0,0,1,3.538-4.269c3.146-1.842,7.6-2.109,10.5-4.342a14.833,14.833,0,0,0,5.6-8.013c1.682-6.62,3.4-19.2,4.11-26.436.531-5.409.968-14.219-1.7-21.246-1.317-3.467-4.487-6.821-5.507-7.847-.678-.682-.823-.978-.226-1.124.895-.219,2.525-.447,3.382-.562a2.649,2.649,0,0,1,2.312.911,24.652,24.652,0,0,1,5.757,10.018,54.06,54.06,0,0,1,1.393,18.321c4.827.323,13.516,1,18.222,1.389,2.834-10.45,4.355-19.876,3.317-26.459-.163-1.03-.261-1.48.339-1.268.76.269,2.442.772,3.477,1.116.888.3,1.126,1.607,1.237,2,1.4,5-1.8,20.6-3.682,26.825,0,0-1.831,16.988-2.064,21.247-.211,3.837-.735,7.675.441,11.48a17.285,17.285,0,0,0,3.171,5.452c1.969,2.029,4.008,2.535,4.221,4.873.157,1.727.451,8.94.465,12.268,3.06,10.5,11.708,29.553,14.523,35.952a193.072,193.072,0,0,1,8.958,26.1c2.82,10.128,5.807,21.383,10.509,36.552.584,1.885,1.437,4.007.521,6.04a9.212,9.212,0,0,1-4.7,4.134c-3.123,1.46-7.183,2.146-9.045-.965-.843-1.407-3.1-6.989-3.839-8.9-4.156-10.753-7.169-17.727-11.481-28.675-2.488-6.317-7.719-14.477-12.315-21.714-4.219-6.643-15.332-22.8-17.559-26.078-2.594-3.821-6.941-4.192-9.295,1.091-2.228,5-9.965,24.047-12.315,28.935a32.9,32.9,0,0,1-10.441,12.78c-6.3,4.607-36.821,25.62-42.12,28.01-2.859,1.289-4.06.7-5.231-.053a14.161,14.161,0,0,1-3.983-4.918,15.745,15.745,0,0,1-1.911-5.073A3.661,3.661,0,0,1,2160.817,833.517Z" transform="translate(-2148.179 -626.18)" fill="#3448ad"/>
        <path id="Path_2205" data-name="Path 2205" d="M2401.7,991.923c2.427-4.288,6.4-3.737,8.826-.156,2.226,3.279,13.339,19.433,17.556,26.077,4.6,7.239,9.828,15.4,12.315,21.713,2.58,6.552,4.694,11.679,6.87,17.044a2.962,2.962,0,0,0,.366-1.495c0-2.506-2.37-6.838-3.444-11.345-.875-3.671-1.431-10.085-3.5-14.681-1.018-2.265-5.512-6.2-7.21-10.178-1.937-4.542-1.978-9.653-4.637-13.889-1.565-2.49-5.381-4.189-7-7.315-2.5-4.831-2.144-13.953-5.381-17.191-1.59.261-7.875,1.52-9.01,1.765a3.411,3.411,0,0,0-2.217,1.851c-1.32,2.726-1.918,4.43-3.27,6.956A2.8,2.8,0,0,0,2401.7,991.923Z" transform="translate(-2314.04 -841.65)" fill="#1f367a"/>
        <path id="Path_2206" data-name="Path 2206" d="M2624.488,962.478c1.1-.611,5.485.865,6.854,1.445,1.718.729,8.9,2.82,11.377,2.433,2.641-.414,5.94-1.174,7.51-1.095,1.055.053,3.136.844,1.324,2.089-1.933,1.328-6.844,4.439-8.622,5.5a6.462,6.462,0,0,1-3.358,1.041c-2.281-.211-4.478-.568-5.9-.8-1.565-.258-5.441-4.168-6.9-5.584C2623.485,964.294,2623.275,963.154,2624.488,962.478Z" transform="translate(-2466.041 -829.212)" fill="#e8988c"/>
        <path id="Path_2207" data-name="Path 2207" d="M2283.979,721.118c2.283-9.3,9.208-30.829,12.224-37.549,1.713-3.818,5.8-11.53,9.992-13.023a27.7,27.7,0,0,1,4.9-1.295c.193-.029.209.063.356.228,2.1,2.359,5.431,5.59,5.431,9.372a32,32,0,0,1-3.667,14.192c-3.976,8.05-9.664,21.318-11.662,26.489-2.733,7.074-1.369,9.5,3.243,13.859,5.024,4.743,30.315,27.878,31.967,29.371,2.732,2.469,3.093,4.048,2.305,6.27-.4,1.124-2.7,2.108-4.8.744-7.564-4.912-36.261-23.136-43.793-28.551C2283.374,736.119,2281.081,732.919,2283.979,721.118Z" transform="translate(-2232.643 -628.639)" fill="#7fd9eb"/>
        <path id="Path_2208" data-name="Path 2208" d="M2441.75,967.766a3.608,3.608,0,0,1,3.961-.925c1.718.729,5.286,1.956,7.416,2.741a8.306,8.306,0,0,0,5.708-.1c2.541-.83,4.111-1.105,5.08-.711,1,.407,3.82,1.091,2.009,2.336-1.934,1.328-6.844,4.439-8.623,5.5a6.464,6.464,0,0,1-3.358,1.041c-2.281-.211-4.478-.568-5.9-.8-1.565-.259-3.389-2.248-5.027-3.448C2441.35,972.175,2440.184,969.806,2441.75,967.766Z" transform="translate(-2340.945 -832.13)" fill="#e8988c"/>
        <path id="Path_2209" data-name="Path 2209" d="M2435.064,559.325c-1.064-4.313-6.4-6.745-11.423-7.069-5.176-.334-9.893,2.463-11.688,6.178-1.712,3.544-2.2,9.389,2.224,18.235,1.058,2.114.448,3.093.323,5.406-.028.526-.039.923-.045,1.261-.2.931-.4,1.824-.643,2.793-.559,2.274-2.349,1.891-2.8,3.036-1.684,4.311,6.711,11.308,13.812,11.6,6.613.273,6.411-7.306,6.01-9.048-.318-1.383-1.559-1.605-2.239-2.038-1.125-.716-1.262-1.356-1.235-2.694.013-.272.036-.565.071-.9.157-1.472.359-5.208,1.318-6,.817-.675,1.227-.914,2.138-1.6a10.378,10.378,0,0,0,2.455-4.411c.51-2.117.4-5.841.578-7.972C2434.148,563.431,2435.727,562.01,2435.064,559.325Z" transform="translate(-2320.211 -548.559)" fill="#fec1b5"/>
        <path id="Path_2210" data-name="Path 2210" d="M2436.278,618.276c-.321-.4-2.164-3.109-2.395-2.768-.4.584.625,4.181,1.56,5.664.861,1.369,3.617,4.455,6.4,4.849a6.266,6.266,0,0,0,1.757.087,4.714,4.714,0,0,1,.948-2.732c.825-.665,1.229-.915,2.137-1.606a3.12,3.12,0,0,0,.679-.738C2444.027,622.147,2439.083,621.779,2436.278,618.276Z" transform="translate(-2336.005 -591.843)" fill="#e8988c"/>
        <path id="Path_2211" data-name="Path 2211" d="M2451.065,567.07a6.392,6.392,0,0,0-.71-1.736,5.341,5.341,0,0,0-1.222-.783c-4.2-1.97-11.569-1.045-14.489,2.737-1.777,2.3,1.14,2.775,3.2,2.838,2.556.079,6.054-.186,8.557.442a4.563,4.563,0,0,1,2.721,1.518c.634.836.489,1.919.732,2.806.015-.376.038-.729.063-1.045C2450.147,571.174,2451.725,569.753,2451.065,567.07Z" transform="translate(-2336.211 -556.302)" fill="#e8988c"/>
        <path id="Path_2212" data-name="Path 2212" d="M2428.657,547.576a14.075,14.075,0,0,0-9.923-5.07c-6.149-.379-12.859,2.021-13.794,5.914-.352,1.465-.194,2.905-1.134,3.877-2.625,2.713-.41,8.38.448,10.51,1.18,2.931,4.041,9.028,5.086,8.622.637-.247,1.568-2.3,1.5-3.2-.137-1.921-.21-3.921-.526-5.819a2.65,2.65,0,0,1,.419-2.533c.235.5.772,1.969.772,1.969l1.948-.9a15.727,15.727,0,0,0,2.158-9.763,4.061,4.061,0,0,1,1.54-1.152c3.165-1.322,8.639-.026,10.8,1.913a3.044,3.044,0,0,1,1.28,2.725c.007.6-.362,2.084.218,1.946s1.218-1.613,1.316-3.724C2430.852,551.075,2429.534,548.707,2428.657,547.576Z" transform="translate(-2314.632 -541.878)" fill="#1e2859"/>
        <ellipse id="Ellipse_58" data-name="Ellipse 58" cx="2.305" cy="3.622" rx="2.305" ry="3.622" transform="matrix(0.967, -0.254, 0.254, 0.967, 91.412, 16.682)" fill="#fec1b5"/>
        <path id="Path_2213" data-name="Path 2213" d="M2401.025,558.7c.18.776.87,2.23,1.755,1.206a30.233,30.233,0,0,1,8.228-6.858,21.376,21.376,0,0,1,7.122-3.028,16.609,16.609,0,0,1,10.035.9c.489.224.956-.315.736-1.1-.882-3.138-2.466-5.555-6.569-8.064-3.016-1.845-9.5-1.2-13.271-.079C2399.5,544.526,2399.473,552,2401.025,558.7Z" transform="translate(-2313.061 -540.6)" fill="#3448ad"/>
        <path id="Path_2214" data-name="Path 2214" d="M2437.142,556.8c.768-.427,3.3-1.492,4.76-2.212a25.984,25.984,0,0,0,4.146-2.583c1.214-.9,2.215-2.569,4.262-3.655a5.771,5.771,0,0,1,2.274-.722c.16-.026-.058-.227-1.082.1-2.141.689-5.442,2.446-7.451,3.073-5.25,1.64-7.116,4.75-7.391,6.079C2436.614,557.112,2436.79,557,2437.142,556.8Z" transform="translate(-2337.961 -545.354)" fill="#7ac9eb"/>
        <path id="Path_2215" data-name="Path 2215" d="M2436.765,556.611c2.979-1.662,7.567-2.925,10.9-6.685a7.586,7.586,0,0,1,10.64-1.126c1.271,1.046,3.165,3.441,2.315,5.687-.764,2.019-4.223,3.152-6.111,3.4-.922.122-1.133-.014-1.516-.445a8.215,8.215,0,0,0-3.4-2.459c-2.584-.968-6.572-.477-9.041.318a30.043,30.043,0,0,0-3.418,1.544C2436.65,557.112,2436.34,556.863,2436.765,556.611Z" transform="translate(-2337.901 -545.064)" fill="#1f367a"/>
        <path id="Path_2216" data-name="Path 2216" d="M2467.2,614.332c-.047.328-1.17.847-2.526.65s-2.206-1.3-2.082-1.6c.117-.284.946.425,2.3.622S2467.247,614,2467.2,614.332Z" transform="translate(-2355.705 -590.364)" fill="#fff"/>
      </g>
      <g id="Group_526" data-name="Group 526" transform="translate(109.421 79.298)">
        <g id="Group_520" data-name="Group 520">
          <rect id="Rectangle_628" data-name="Rectangle 628" width="58.606" height="58.606" fill="#f0c397"/>
          <rect id="Rectangle_629" data-name="Rectangle 629" width="13.363" height="58.606" transform="translate(71.969 58.606) rotate(180)" fill="#cc9068"/>
        </g>
        <g id="Group_525" data-name="Group 525" transform="translate(9.89 39.996)">
          <g id="Group_521" data-name="Group 521">
            <rect id="Rectangle_630" data-name="Rectangle 630" width="18.373" height="0.947" fill="#fff"/>
          </g>
          <g id="Group_522" data-name="Group 522" transform="translate(0 2.929)">
            <rect id="Rectangle_631" data-name="Rectangle 631" width="18.373" height="0.947" fill="#fff"/>
          </g>
          <g id="Group_523" data-name="Group 523" transform="translate(0 5.859)">
            <rect id="Rectangle_632" data-name="Rectangle 632" width="18.373" height="0.947" fill="#fff"/>
          </g>
          <g id="Group_524" data-name="Group 524" transform="translate(6.563 8.788)">
            <rect id="Rectangle_633" data-name="Rectangle 633" width="11.81" height="0.947" fill="#fff"/>
          </g>
        </g>
      </g>
    </g>
    <g id="Group_545" data-name="Group 545" transform="translate(386.467 201.262)">
      <g id="Group_529" data-name="Group 529">
        <path id="Path_2217" data-name="Path 2217" d="M1229.8,1263.936c1.6,1.315,6.313,3.573,8.528,2.548s-2.11-7.48-2.23-10.123c-.149-3.314,1.538-11.566,3.4-13.586,1.676-1.815,3.512-2.977,5.241-4.577,1.506-1.394,1.8-3.709.653-4.893-1.809-1.872-4.145-2.759-7-.878-.936.616-3.947,2.3-5.934,3.4-1.771.984-3.729.981-6.218,2.078-2.566,1.131-1.871,4-1.625,4.919a66.637,66.637,0,0,1,1.49,7.5c.387,3.134-.253,4.906.313,8.017A10.119,10.119,0,0,0,1229.8,1263.936Z" transform="translate(-1224.345 -1007.246)" fill="#1e2859"/>
        <path id="Path_2218" data-name="Path 2218" d="M1581.244,1296.168c.066,2.44-.025,3.68,3.755,3.663,2.043-.009,5.445-.1,7.135-.138,3.2-.069,9.8.885,14.706.262,3.81-.483,9.581-1.216,8.374-3.895-1.067-2.368-6.631-2.272-9.029-2.831a32.825,32.825,0,0,1-9.427-3.315,17.307,17.307,0,0,1-6.478-6.248,7.76,7.76,0,0,0-4.915-3.426c-4.7-.637-5.664,1.467-4.131,7.843C1581.837,1290.591,1581.191,1294.178,1581.244,1296.168Z" transform="translate(-1468.121 -1040.606)" fill="#1e2859"/>
        <path id="Path_2219" data-name="Path 2219" d="M1388.229,719.73c.319,6.212,2.053,10.232,9.226,10.651,6.81.4,24.63.631,29.177.405,6.437-.319,10.469-2.71,11.906-8.764,1.8-7.565,3.577-54.195,2.964-58.738-.391-2.9-1.725-5.9-7.089-7.775-3.38-1.184-14.357-2.567-22.322-2.867a88.609,88.609,0,0,0-19.354,1.776c-5.967,1.214-7.3,2.659-7.427,9C1385.233,667.314,1387.721,709.822,1388.229,719.73Z" transform="translate(-1334.501 -611.159)" fill="#7fd9eb"/>
        <path id="Path_2220" data-name="Path 2220" d="M1465.707,542.75c-1.05-4.589-5.756-6.743-9.709-7.351-4.442-.684-10.129,1.768-12.556,5.361-2.1,3.113-3.136,7.625,1.141,16.3,1.022,2.074.86,4.976.606,7.183-.257,2.231-.477,3.865-.806,5.821-.4,2.354-1.941,2.112-2.2,3-1.25,4.36,7.437,11.252,14.847,10.984,6.9-.25,6.072-7.929,5.513-9.666-.444-1.378-1.752-1.506-2.494-1.891-1.839-.955-1.784-2-1.678-5.29.073-2.255.013-4.609.788-4.934a9.683,9.683,0,0,0,2.242-1.188,5.918,5.918,0,0,0,1.859-2.5c.814-1.909.975-6.15,1.176-8.188C1464.691,547.838,1466.3,545.36,1465.707,542.75Z" transform="translate(-1373.036 -530.871)" fill="#fec1b5"/>
        <path id="Path_2221" data-name="Path 2221" d="M1386.744,721.226c.723,14.375,2.1,38.219,2.468,45.318.009.174.018.347.033.518a5.234,5.234,0,0,0,3.143.363c5.582-.631,9.553-5.107,11.208-7.56,3.721-5.524,3.683-16.376,3.531-21.531-.049-1.764-.339-7.089-.83-8-1.463-2.708-2.551,5.5-2.444,9.959.063,2.68-.249,9.163-1.117,11.521-.721,1.954-2.167,1.959-3.036.077-1.913-4.143-.994-24.9-3.548-27.753A10.619,10.619,0,0,0,1386.744,721.226Z" transform="translate(-1335.483 -657.972)" fill="#37c0db"/>
        <path id="Path_2222" data-name="Path 2222" d="M1260.2,834.792c4.629-5.123,25.7-29.69,28.234-32.694,4.354-5.156,9.17-14.226,9.212-21.7.066-11.8.013-50.648-.2-54.863-.065-1.291.033-4.253.415-4.9,1-1.7,1.86.065,4.311.254,4.373.337,6.786-1.968,8.9-3.644,6.114-4.839,5.968-12.544,6.169-19.7.112-3.977.177-10.344.006-13.794-.532-10.7-1.475-16.869-4.657-21.266-2.4-3.314-5.121-5.573-8.211-6.076-.96-.156-1.042-.372-.494-.533a26.351,26.351,0,0,1,4.181-.726c2.958,0,6.579,2.653,9.278,6.7,2.778,4.17,4.2,11.31,4.925,20h18.3c.44-9.375-.686-20.05-2.066-24.482-.553-1.777-.967-2.579-.221-2.48.694.092,2.686.368,3.268.45.859.121,1,.287,1.474,1.58,2,5.51,2.7,19.807,2.9,27.52.112,4.216.915,18.936,1.159,23.725.173,3.4.178,6.588,1.656,9.769.935,2.012,2.911,3.115,4.248,3.908,1.3.772,1.635,3.831,1.773,5.332.526,5.741.886,13.526,1.884,16.8a104.458,104.458,0,0,0,4.437,12.251c3.993,9.271,8.368,16.99,12.065,25.857,3.26,7.82,2.885,14.818,2.342,23.043-1.029,15.59-2.686,44.19-3.554,49.8-.522,3.374-5.738,3.68-8.98,3.987-7.519.711-6.474-4.024-6.662-8.338-.2-4.567-.428-25.9-.525-30.954-.2-10.258-1.844-14.4-4.227-20.529-3.434-8.831-14.088-27.935-15.911-31.475-.685-1.33-2.283-4.781-4.663-4.577-2.767.237-2.8,2.086-3.81,5.287-1.256,3.983-5.457,20.312-7.019,25.551-2.271,7.619-7.824,14.354-10.082,16.635-6.425,6.495-29.45,28.774-38.342,36.876-2.289,2.085-4.436,1.474-7.118-.037a26.649,26.649,0,0,1-6.484-6.225C1256.557,838.557,1257.611,837.662,1260.2,834.792Z" transform="translate(-1246.959 -612.716)" fill="#3448ad"/>
        <path id="Path_2223" data-name="Path 2223" d="M1481.029,986.822c.514-1.534,1.138-2.421,3-2.579,2.379-.2,3.978,3.248,4.662,4.577,1.822,3.542,12.474,22.645,15.911,31.474,2.381,6.13,4.031,10.271,4.226,20.53.078,4.268.251,18.248.426,25.236,1.318-1.092,2.2-4.965,2.149-7.061-.057-2.472-.767-7.607-.67-13.046.112-6.155,2.654-10.877,1.6-16.019-.847-4.129-4.01-7.465-4.786-11.812-.865-4.848-.569-8.781-2.575-13.387-1.182-2.708-4.69-5.035-5.83-8.374-1.762-5.158.473-12.3-2.969-18.234-1.6-.022-9.085.487-10.385.671a3.078,3.078,0,0,0-2.335,1.645c-.852,2.1-1.3,3.128-2.109,5.306A9.488,9.488,0,0,0,1481.029,986.822Z" transform="translate(-1400.006 -833.93)" fill="#1f367a"/>
        <path id="Path_2224" data-name="Path 2224" d="M1299.993,713.708c2.992-8.338,13.861-32.123,18.189-41,1.7-3.5,3.9-8.781,7.422-9.979,3.047-1.036,4.886-1.9,6.723-.4,6.133,5.016,5.973,14,3.982,20.278-2.6,8.207-16.377,26.967-18.7,31.459-3.076,5.953-.26,7.3,3.13,9.141,7.226,3.916,29.074,15.267,30.966,16.27,3.472,1.841,3.629,4.507,2.847,6.681-.4,1.1-2.766,2.021-5.091,1.175-7.647-2.78-32.088-11.474-42.611-15.486C1298.488,728.661,1295.971,724.911,1299.993,713.708Z" transform="translate(-1274.831 -617.262)" fill="#7fd9eb"/>
        <path id="Path_2225" data-name="Path 2225" d="M1485.788,547.71a8.393,8.393,0,0,0-3.772-5.17c-3.993-.133-8.583,1.4-10.581,4.362-1.626,2.415,1.316,2.7,3.38,2.626,2.557-.085,6.029-.578,8.567-.11a5.233,5.233,0,0,1,2.386.928A6.231,6.231,0,0,0,1485.788,547.71Z" transform="translate(-1393.119 -535.831)" fill="#e8988c"/>
        <path id="Path_2226" data-name="Path 2226" d="M1437.653,535.617c.458-1.176,1.216-1.867,1.566-3.143,1.071-3.906,7.105-6.482,11.741-6.04,2.458.234,10.232,1.888,12.382,8.037a9.7,9.7,0,0,1-.237,5.491c-.511.843-.751.068-.743-.34a8.463,8.463,0,0,0-.287-3.323,3.918,3.918,0,0,0-2.273-2.3,14.917,14.917,0,0,0-6.934-.126,2.84,2.84,0,0,0-2.062,2.341,14.187,14.187,0,0,1-1.791,5.8c-1.207,1.85-4.095,2.821-4.095,2.821a2.952,2.952,0,0,0-.743-1.664c-1.164,1.229-.506,6.159-.428,8.08.035.87.058,3.084-.667,3.271-.771.2-1.279-.919-1.682-1.7C1438.5,547.215,1435.83,540.3,1437.653,535.617Z" transform="translate(-1369.913 -524.781)" fill="#1e2859"/>
        <g id="Group_528" data-name="Group 528" transform="translate(66.068)">
          <path id="Path_2227" data-name="Path 2227" d="M1434.386,538.859c.175.753.844,2.163,1.7,1.17a29.333,29.333,0,0,1,7.98-6.652,20.737,20.737,0,0,1,6.908-2.937,16.111,16.111,0,0,1,9.734.877c.474.217.928-.305.714-1.064-.856-3.044-2.392-5.388-6.372-7.822-2.926-1.789-9.219-1.163-12.872-.077C1432.906,525.112,1432.881,532.361,1434.386,538.859Z" transform="translate(-1433.651 -521.304)" fill="#3448ad"/>
          <path id="Path_2228" data-name="Path 2228" d="M1469.42,537.022c.745-.415,3.2-1.448,4.616-2.146a25.24,25.24,0,0,0,4.021-2.505c1.178-.872,2.148-2.492,4.134-3.545a5.591,5.591,0,0,1,2.206-.7c.156-.025-.057-.221-1.049.1-2.076.669-5.279,2.372-7.227,2.981-5.093,1.59-6.9,4.607-7.169,5.9C1468.907,537.321,1469.079,537.211,1469.42,537.022Z" transform="translate(-1457.805 -525.916)" fill="#7ac9eb"/>
          <path id="Path_2229" data-name="Path 2229" d="M1469.054,536.835c2.889-1.612,7.34-2.838,10.576-6.484a7.358,7.358,0,0,1,10.321-1.092c1.232,1.015,3.07,3.338,2.246,5.516-.741,1.958-4.1,3.058-5.928,3.3-.894.118-1.1-.014-1.471-.431a7.966,7.966,0,0,0-3.293-2.385c-2.506-.939-6.375-.463-8.769.308a29.061,29.061,0,0,0-3.316,1.5C1468.943,537.321,1468.643,537.079,1469.054,536.835Z" transform="translate(-1457.746 -525.634)" fill="#1f367a"/>
        </g>
        <path id="Path_2230" data-name="Path 2230" d="M1451.265,576.579c.656,1.738.336,3.672-.849,3.815-.987.119-2.311-.97-3.051-2.554-.788-1.688-.975-3.36.674-3.738C1449.655,573.732,1450.609,574.841,1451.265,576.579Z" transform="translate(-1376.568 -557.388)" fill="#fec1b5"/>
        <path id="Path_2231" data-name="Path 2231" d="M1464.646,609.721c-.344-.4-2.336-3.109-2.585-2.768-.432.584.559,4.5,1.569,5.985.928,1.367,3.135,4.261,6.651,4.476a11.924,11.924,0,0,0,1.979-.028c.01-.35.022-.735.035-1.155.038-1.13.041-2.285.129-3.2A10.47,10.47,0,0,1,1464.646,609.721Z" transform="translate(-1386.954 -579.898)" fill="#e8988c"/>
        <path id="Path_2232" data-name="Path 2232" d="M1467.8,592.612c2.856,1.52,7.345,1.709,8.921.335,2.09-1.822,2.7-8.12,2.076-9.685-.663-1.668-2.4-1.741-4.353-1.179-2.007.577-3.351,2.3-5.921.965-1.339-.7-2.869-4.354-3.757-6.477-.352-.84-2.572-.408-2.6.522C1462.027,581.281,1460.724,588.847,1467.8,592.612Z" transform="translate(-1386.972 -558.818)" fill="#1e2859"/>
        <path id="Path_2233" data-name="Path 2233" d="M1446.743,905.828c.758-.988,2.6-2.285,3.884-1.554,6.321,3.606,10.846,2.062,13.869,3.237,1.539.6,4.2,3.891,3.577,6-.579,1.973-6.471,7.207-9.772,6.951-3.474-.27-4.639-2.618-5.432-4.084a10.863,10.863,0,0,0-5.36-4.171C1445.588,911.479,1445.189,907.852,1446.743,905.828Z" transform="translate(-1375.888 -783.242)" fill="#e8988c"/>
        <path id="Path_2234" data-name="Path 2234" d="M1555.57,734.206c1.342-5.945,4.445-15.7,2.972-21.8-1.441-5.97-7.523-25.849-11.416-35.142-2.913-6.953-4.65-13.375-12.918-15.415a6.136,6.136,0,0,0-2.838.135c-1,.225-.459,1.261-.276,2.067,1.986,8.759,2.486,24.4,2.538,27.2a14.613,14.613,0,0,0,1.71,7.179c3.518,7.284,7.094,14.254,7.786,18.1.883,4.91-2.157,21.359-2.946,29.632-.422,4.427.919,7.539,3.63,7.51C1551.643,753.587,1553.912,741.552,1555.57,734.206Z" transform="translate(-1434.056 -617.407)" fill="#7fd9eb"/>
        <path id="Path_2235" data-name="Path 2235" d="M1567.549,783.925c-.193-4.056-4.975-19.974-7.012-20.827-.193,4.742-.43,9.672-.7,14.3a41.057,41.057,0,0,1,3.172,8.5c.884,4.908-2.156,21.36-2.945,29.63a13.962,13.962,0,0,0,.038,3.267.809.809,0,0,0,.745.407c2.352-.174,2.32-5.868,2.888-9.23C1564.506,805.414,1567.773,788.638,1567.549,783.925Z" transform="translate(-1453.941 -686.775)" fill="#37c0db"/>
        <path id="Path_2236" data-name="Path 2236" d="M1568.886,912.788c1.366.928,3.916,3.155,3.3,5.261-.579,1.973-6.192,7.944-9.493,7.687-3.474-.27-4.586-1.893-5.1-3.478-.625-1.921,2.034-7.181,5.728-9.957C1564.374,911.507,1567.066,911.551,1568.886,912.788Z" transform="translate(-1452.338 -788.519)" fill="#e8988c"/>
        <path id="Path_2237" data-name="Path 2237" d="M1500.513,605.072c-.038.3-1.085.788-2.369.627s-2.109-1.156-2-1.433c.1-.26.9.376,2.185.538S1500.551,604.773,1500.513,605.072Z" transform="translate(-1410.345 -578.037)" fill="#fff"/>
      </g>
      <g id="Group_544" data-name="Group 544" transform="translate(85.381 106.462)">
        <g id="Group_530" data-name="Group 530">
          <path id="Path_2238" data-name="Path 2238" d="M1599.473,997.57h-26.982a1.1,1.1,0,0,1-.959-.556l-76.225-133.175a3.514,3.514,0,0,1,3.05-5.259h18.683a8.27,8.27,0,0,1,7.162,4.153l76.23,133.183a1.1,1.1,0,0,1-.959,1.653Zm-26.341-2.209h24.436l-75.284-131.53a6.056,6.056,0,0,0-5.244-3.041h-18.683a1.3,1.3,0,0,0-1.132,1.952Z" transform="translate(-1494.837 -858.58)" fill="#1e2859"/>
        </g>
        <g id="Group_531" data-name="Group 531" transform="translate(117.39 122.735)">
          <path id="Path_2239" data-name="Path 2239" d="M1915.51,1247.41h-10.574v30.3h10.574c6.66,0,12.058-6.783,12.058-15.15S1922.17,1247.41,1915.51,1247.41Z" transform="translate(-1892.878 -1247.41)" fill="#3c3c3b"/>
          <ellipse id="Ellipse_59" data-name="Ellipse 59" cx="12.058" cy="15.15" rx="12.058" ry="15.15" fill="#706f6f"/>
          <ellipse id="Ellipse_60" data-name="Ellipse 60" cx="6.174" cy="7.757" rx="6.174" ry="7.757" transform="translate(5.884 7.393)" fill="#c6c6c6"/>
        </g>
        <g id="Group_532" data-name="Group 532" transform="translate(2.396 15.288)">
          <path id="Path_2240" data-name="Path 2240" d="M1503.531,914.05a1.1,1.1,0,0,1-.8-1.868l4.616-4.826a1.1,1.1,0,0,1,.8-.341h26.939a1.1,1.1,0,0,1,.789,1.878l-4.706,4.794a1.1,1.1,0,0,1-1.577-1.547l2.862-2.916h-23.834l-4.29,4.485A1.1,1.1,0,0,1,1503.531,914.05Z" transform="translate(-1502.426 -907.014)" fill="#1e2859"/>
        </g>
        <g id="Group_533" data-name="Group 533" transform="translate(17.567 8.729)">
          <path id="Path_2241" data-name="Path 2241" d="M1607.793,930.305l-32.079,33.238-25.224-44.07,32.079-33.238Z" transform="translate(-1550.489 -886.235)" fill="#f0c397"/>
          <path id="Path_2242" data-name="Path 2242" d="M1696.2,886.235h-44.086l25.225,44.07h44.086Z" transform="translate(-1620.038 -886.235)" fill="url(#linear-gradient-7)"/>
          <path id="Path_2243" data-name="Path 2243" d="M1674.488,1059.09H1630.4l32.079-33.238h44.086Z" transform="translate(-1605.177 -981.782)" fill="#b37a54"/>
        </g>
        <g id="Group_540" data-name="Group 540" transform="translate(33.772 46.934)">
          <g id="Group_534" data-name="Group 534">
            <path id="Path_2244" data-name="Path 2244" d="M1669.244,1059.117l-37.74,39.1-29.676-51.847,37.74-39.1Z" transform="translate(-1601.828 -1007.269)" fill="url(#linear-gradient-8)"/>
            <path id="Path_2245" data-name="Path 2245" d="M1773.256,1007.269H1721.39l29.676,51.847h51.866Z" transform="translate(-1683.65 -1007.269)" fill="#cc9068"/>
            <path id="Path_2246" data-name="Path 2246" d="M1747.708,1210.628h-51.866l37.74-39.1h51.866Z" transform="translate(-1666.167 -1119.677)" fill="#b37a54"/>
          </g>
          <g id="Group_539" data-name="Group 539" transform="translate(66.368 35.709)">
            <g id="Group_535" data-name="Group 535">
              <path id="Path_2247" data-name="Path 2247" d="M1831.967,1121.321h-19.356l-.526-.924h19.356Z" transform="translate(-1812.085 -1120.397)" fill="#f0c397"/>
            </g>
            <g id="Group_536" data-name="Group 536" transform="translate(1.627 2.858)">
              <path id="Path_2248" data-name="Path 2248" d="M1837.12,1130.376h-19.356l-.526-.924h19.356Z" transform="translate(-1817.238 -1129.452)" fill="#f0c397"/>
            </g>
            <g id="Group_537" data-name="Group 537" transform="translate(3.253 5.716)">
              <path id="Path_2249" data-name="Path 2249" d="M1842.273,1139.43h-19.356l-.526-.924h19.356Z" transform="translate(-1822.391 -1138.507)" fill="#f0c397"/>
            </g>
            <g id="Group_538" data-name="Group 538" transform="translate(4.88 8.574)">
              <path id="Path_2250" data-name="Path 2250" d="M1840.511,1148.485H1828.07l-.526-.924h12.442Z" transform="translate(-1827.544 -1147.561)" fill="#f0c397"/>
            </g>
          </g>
        </g>
        <g id="Group_541" data-name="Group 541" transform="translate(54.077 136.78)">
          <path id="Path_2251" data-name="Path 2251" d="M1741.527,1294.115h-74.267a1.1,1.1,0,0,1,0-2.209h74.267a1.1,1.1,0,0,1,0,2.209Z" transform="translate(-1666.156 -1291.906)" fill="#1e2859"/>
        </g>
        <g id="Group_542" data-name="Group 542" transform="translate(76.549 111.365)">
          <path id="Path_2252" data-name="Path 2252" d="M1765.434,1239.014h-26.982a1.1,1.1,0,0,1-.788-1.878l21.593-22a12.575,12.575,0,0,1,8.922-3.745h15.71a3.828,3.828,0,0,1,2.732,6.51l-20.4,20.784A1.1,1.1,0,0,1,1765.434,1239.014Zm-24.35-2.21h23.886l20.073-20.453a1.619,1.619,0,0,0-1.155-2.753h-15.71a10.353,10.353,0,0,0-7.345,3.083Z" transform="translate(-1737.347 -1211.389)" fill="#1e2859"/>
        </g>
        <g id="Group_543" data-name="Group 543" transform="translate(32.549 122.735)">
          <path id="Path_2253" data-name="Path 2253" d="M1646.73,1247.41h-10.574v30.3h10.574c6.66,0,12.058-6.783,12.058-15.15S1653.39,1247.41,1646.73,1247.41Z" transform="translate(-1624.098 -1247.41)" fill="#3c3c3b"/>
          <ellipse id="Ellipse_61" data-name="Ellipse 61" cx="12.058" cy="15.15" rx="12.058" ry="15.15" fill="#706f6f"/>
          <ellipse id="Ellipse_62" data-name="Ellipse 62" cx="6.174" cy="7.757" rx="6.174" ry="7.757" transform="translate(5.884 7.393)" fill="#c6c6c6"/>
        </g>
      </g>
    </g>
  </g>
</svg>
